<svg xmlns="http://www.w3.org/2000/svg" width="432" height="376" viewBox="0 0 432 376">
<g>
<path d="M 159.50 308.00 L 149.50 303.15 L 135.44 317.12 C121.58,330.90 121.36,331.06 119.57,329.08 C117.79,327.12 118.04,326.78 133.13,310.83 C141.58,301.89 158.10,285.09 169.83,273.49 L 191.17 252.41 L 198.33 254.93 C204.50,257.10 207.25,257.45 218.00,257.47 C228.35,257.50 231.79,257.10 238.00,255.16 C252.46,250.65 263.51,243.06 273.02,231.12 C282.13,219.68 286.08,209.74 288.03,193.39 C289.02,185.04 288.90,183.24 286.55,171.84 L 283.99 159.41 L 306.52 136.95 C318.91,124.60 329.45,114.36 329.94,114.19 C332.31,113.38 343.93,138.33 347.14,151.13 C348.29,155.74 349.38,159.67 349.57,159.87 C349.76,160.07 354.72,155.22 360.61,149.08 C366.56,142.86 371.96,138.04 372.79,138.21 C373.61,138.37 374.78,139.28 375.37,140.23 C376.30,141.69 374.19,144.26 361.43,157.23 C353.16,165.63 344.61,174.53 342.45,177.00 C340.28,179.48 337.31,182.12 335.86,182.86 C334.41,183.61 316.86,200.62 296.86,220.67 C276.86,240.72 246.49,271.04 229.36,288.06 C198.98,318.25 198.12,319.00 194.24,319.00 C188.25,319.00 170.76,313.46 159.50,308.00 Z" fill="rgb(59,63,137)" data-index="0"></path>
<path d="M 332.34 116.51 C331.27,114.90 330.42,114.03 329.94,114.19 C329.45,114.36 318.91,124.60 306.52,136.95 L 283.99 159.41 L 285.64 167.41 C284.85,163.90 284.14,161.28 283.83,160.81 C283.20,159.83 281.92,160.62 278.83,163.89 C274.95,167.99 274.59,168.15 273.34,166.45 C272.60,165.44 272.00,164.23 272.00,163.75 C272.00,163.28 270.26,160.32 268.13,157.18 C262.74,149.26 251.46,138.91 243.33,134.43 C242.96,134.22 242.61,134.03 242.27,133.84 C237.33,131.12 235.90,130.33 235.99,129.81 C236.03,129.56 236.41,129.36 236.92,129.05 C238.26,128.22 276.41,90.34 300.86,65.58 L 313.21 53.06 L 316.63 54.82 L 320.05 56.57 L 304.85 71.69 L 289.65 86.81 L 301.60 98.65 C308.17,105.17 315.32,112.86 317.48,115.75 L 321.42 121.01 L 325.69 116.82 C328.04,114.51 330.14,112.82 330.37,113.06 C330.49,113.19 331.25,114.51 332.34,116.51 ZM 112.00 330.16 C112.00,330.62 111.62,331.00 111.15,331.00 C109.99,331.00 107.00,327.58 107.00,326.24 C107.00,325.64 111.72,320.73 117.49,315.32 C123.26,309.92 127.98,305.00 127.99,304.40 C127.99,303.79 124.83,300.47 120.95,297.03 C113.98,290.83 97.00,271.98 97.00,270.44 C97.00,269.16 142.37,224.01 143.66,224.01 C144.30,224.00 146.69,227.40 148.97,231.56 C154.16,241.03 162.31,249.24 173.08,255.87 L 181.43 261.01 L 185.96 256.57 L 190.50 252.14 L 198.00 254.79 C200.98,255.85 203.13,256.49 205.61,256.89 C203.18,256.51 201.10,255.90 198.33,254.93 L 191.17 252.41 L 169.83 273.49 C158.10,285.09 141.58,301.89 133.13,310.83 C118.04,326.78 117.79,327.12 119.57,329.08 C121.32,331.01 121.57,330.91 134.39,318.16 L 121.46 331.02 L 119.40 328.95 C117.60,327.16 116.99,327.05 114.67,328.11 C113.20,328.77 112.00,329.70 112.00,330.16 ZM 348.05 154.69 C347.76,153.60 347.45,152.39 347.14,151.13 C345.64,145.16 342.31,136.53 338.94,129.12 C343.22,138.07 346.50,147.17 347.96,154.25 C347.99,154.40 348.02,154.55 348.05,154.69 ZM 287.53 176.75 C288.55,182.13 288.79,184.85 288.51,188.73 C288.76,184.90 288.50,182.07 287.53,176.75 Z" fill="rgb(85,171,224)" data-index="1"></path>
<path d="M 315.67 54.32 L 313.21 53.06 L 300.86 65.58 C283.07,83.60 258.03,108.55 245.19,121.13 L 239.96 119.57 C231.47,117.03 220.16,115.74 212.67,116.47 C200.34,117.67 193.06,120.12 179.13,127.77 C171.79,131.80 160.61,144.22 155.62,153.87 C147.04,170.48 145.20,183.84 149.02,201.90 C151.70,214.60 151.62,215.42 147.50,218.71 C145.58,220.24 144.00,221.79 144.00,222.14 C144.00,222.45 145.56,225.49 147.64,229.24 C145.82,226.21 144.17,224.00 143.66,224.01 C142.38,224.01 97.71,268.46 97.01,270.40 C97.00,270.37 97.00,270.35 97.00,270.33 C97.00,269.83 99.00,267.45 101.44,265.06 L 105.89 260.70 L 103.11 256.60 C96.97,247.54 91.79,235.13 87.09,218.21 L 85.90 213.92 L 74.39 225.46 C68.06,231.81 62.46,237.00 61.94,237.00 C59.03,237.00 62.20,232.17 71.75,222.07 C77.66,215.81 84.37,208.13 86.65,205.00 C88.93,201.87 94.71,195.53 99.49,190.90 C128.55,162.79 224.00,67.19 224.00,66.19 C224.00,65.54 224.48,65.00 225.07,65.00 C225.67,65.00 228.72,62.55 231.85,59.56 L 237.56 54.12 L 245.53 55.90 C256.66,58.38 262.83,60.51 275.45,66.24 L 286.41 71.21 L 307.25 49.91 L 313.56 53.18 C314.31,53.57 315.02,53.96 315.67,54.32 ZM 149.76 232.96 C152.77,237.92 156.32,242.34 160.53,246.33 C156.19,242.24 152.59,237.77 149.76,232.96 ZM 238.75 131.89 C237.27,131.06 236.28,130.51 236.19,130.44 C236.17,130.42 236.19,130.37 236.24,130.28 C236.60,130.63 237.38,131.11 238.75,131.89 ZM 106.57 282.22 C111.64,287.84 117.51,293.97 120.95,297.03 C117.41,293.88 111.59,287.80 106.57,282.22 ZM 291.90 84.57 L 289.66 86.81 L 289.65 86.81 Z" fill="rgb(174,203,101)" data-index="2" style="opacity: 1;"></path>
<path d="M 186.00 342.38 C176.14,352.39 172.80,354.11 171.46,349.87 C170.90,348.10 173.03,345.49 184.14,334.34 C194.85,323.60 197.20,320.76 196.00,319.99 C195.18,319.46 193.55,319.02 192.38,319.02 C190.17,319.00 184.32,317.40 177.82,315.22 C184.75,317.47 191.09,319.00 194.24,319.00 C198.12,319.00 198.98,318.25 229.36,288.06 C246.49,271.04 276.86,240.72 296.86,220.67 C316.86,200.62 334.41,183.61 335.86,182.86 C336.96,182.30 338.94,180.64 340.77,178.79 L 340.55 199.00 C340.34,217.40 340.05,220.53 337.72,229.58 C330.82,256.28 319.42,275.74 299.25,295.21 C287.77,306.29 275.45,314.74 262.85,320.17 C243.30,328.60 227.67,332.15 208.50,332.50 L 195.50 332.74 ZM 348.01 171.05 C351.67,167.22 356.53,162.21 361.30,157.35 C360.44,158.24 359.54,159.18 358.58,160.16 ZM 112.00 330.11 C112.08,329.64 113.25,328.75 114.67,328.11 C114.90,328.00 115.11,327.91 115.31,327.83 C115.17,327.89 115.03,327.97 114.87,328.05 C113.73,328.65 112.54,329.52 112.00,330.11 ZM 149.81 233.03 C152.79,237.95 156.31,242.32 160.48,246.29 C156.19,242.23 152.61,237.79 149.81,233.03 ZM 107.01 326.36 C107.10,327.14 107.99,328.45 108.96,329.48 C107.92,328.58 107.00,327.35 107.00,326.42 C107.00,326.40 107.00,326.38 107.01,326.36 ZM 375.35 140.18 C374.74,139.25 373.60,138.37 372.79,138.21 C373.61,138.37 374.76,139.25 375.33,140.16 Z" fill="rgb(206,65,128)" data-index="3"></path>
<path d="M 226.95 63.84 C226.01,64.57 225.32,65.00 225.07,65.00 C224.48,65.00 224.00,65.54 224.00,66.19 C224.00,67.19 128.55,162.79 99.49,190.90 C94.71,195.53 88.93,201.87 86.65,205.00 C84.37,208.13 77.66,215.81 71.75,222.07 C65.37,228.82 61.83,233.22 61.06,235.39 C61.02,235.12 61.00,234.81 61.00,234.50 C61.00,233.12 60.48,232.00 59.84,232.00 C59.20,232.00 55.94,234.74 52.59,238.10 C45.16,245.53 43.82,246.32 41.51,244.63 C40.13,243.63 39.98,242.92 40.79,241.42 C41.37,240.36 49.05,232.34 57.86,223.58 L 73.88 207.67 L 73.86 195.58 C73.84,183.55 76.29,166.99 79.52,157.36 C84.12,143.61 93.56,125.92 101.80,115.61 C119.81,93.09 142.84,77.06 168.50,69.19 C182.70,64.84 192.16,63.62 211.00,63.74 ZM 245.50 55.88 C250.04,56.90 253.76,57.85 257.41,59.01 C253.76,57.86 250.05,56.90 245.53,55.90 L 237.56 54.12 L 233.68 57.82 L 237.50 54.09 ZM 158.98 244.81 C159.47,245.31 159.97,245.80 160.47,246.28 C157.08,243.07 154.14,239.63 151.67,235.98 C153.76,239.07 156.19,242.01 158.98,244.81 Z" fill="rgb(245,198,93)" data-index="4" style="visibility: visible; opacity: 1;"></path>

</g>
</svg>